{
	"asset":{
		"generator":"Khronos glTF Blender I/O v4.0.44",
		"version":"2.0"
	},
	"scene":0,
	"scenes":[
		{
			"name":"Scene",
			"nodes":[
				0,
				1,
				2,
				3,
				4,
				5,
				6,
				7,
				8,
				9,
				10,
				11
			]
		}
	],
	"nodes":[
		{
			"mesh":0,
			"name":"Couch Base",
			"translation":[
				0,
				1.301074743270874,
				0.5763213634490967
			]
		},
		{
			"mesh":1,
			"name":"Cousion",
			"translation":[
				0,
				1.360216498374939,
				0.5763213634490967
			]
		},
		{
			"mesh":2,
			"name":"Cube.003",
			"rotation":[
				0,
				-0.3826834261417389,
				0,
				0.9238795638084412
			],
			"scale":[
				0.01381042879074812,
				0.013810427859425545,
				0.01381042879074812
			],
			"translation":[
				1.047974944114685,
				1.2592114210128784,
				0.945180356502533
			]
		},
		{
			"mesh":3,
			"name":"Pillow2",
			"rotation":[
				-0.08384494483470917,
				0,
				0,
				0.9964789152145386
			],
			"scale":[
				1.0130715370178223,
				1,
				1
			],
			"translation":[
				-0.0034423088654875755,
				1.7004461288452148,
				0.2677798569202423
			]
		},
		{
			"mesh":4,
			"name":"Pillow1",
			"rotation":[
				-0.08384494483470917,
				0,
				0,
				0.9964789152145386
			],
			"scale":[
				1.0703920125961304,
				1.0246038436889648,
				1.0246038436889648
			],
			"translation":[
				0.7250511646270752,
				1.7004461288452148,
				0.2677798569202423
			]
		},
		{
			"mesh":5,
			"name":"Pillow3",
			"rotation":[
				-0.08384494483470917,
				0,
				0,
				0.9964789152145386
			],
			"scale":[
				1.0300108194351196,
				1.0137118101119995,
				1.0137118101119995
			],
			"translation":[
				-0.7222315669059753,
				1.7004461288452148,
				0.2677798569202423
			]
		},
		{
			"mesh":6,
			"name":"Pillow7",
			"scale":[
				1.004708170890808,
				1.004708170890808,
				1.004708170890808
			],
			"translation":[
				0,
				1.4279974699020386,
				0.6459100842475891
			]
		},
		{
			"mesh":7,
			"name":"Pillow8",
			"scale":[
				1.0055571794509888,
				1.0055571794509888,
				1.0055571794509888
			],
			"translation":[
				0.7219197154045105,
				1.4279974699020386,
				0.6459100842475891
			]
		},
		{
			"mesh":8,
			"name":"Pillow6",
			"rotation":[
				0,
				1,
				0,
				7.549790126404332e-08
			],
			"scale":[
				1.0107755661010742,
				1.0107755661010742,
				1.0107755661010742
			],
			"translation":[
				-0.7205384373664856,
				1.4279974699020386,
				0.6459100842475891
			]
		},
		{
			"mesh":9,
			"name":"Pillow5",
			"rotation":[
				0,
				0,
				0.12126918882131577,
				0.9926196932792664
			],
			"translation":[
				-0.9963185787200928,
				1.6376566886901855,
				0.6639167666435242
			]
		},
		{
			"mesh":10,
			"name":"Pillow4",
			"rotation":[
				0,
				0,
				-0.1437365710735321,
				0.9896159768104553
			],
			"translation":[
				0.9972480535507202,
				1.6376566886901855,
				0.6639167666435242
			]
		},
		{
			"mesh":11,
			"name":"Cube",
			"translation":[
				1.1040832996368408,
				1.6868177652359009,
				0.49826255440711975
			]
		}
	],
	"materials":[
		{
			"doubleSided":true,
			"name":"Material",
			"pbrMetallicRoughness":{
				"baseColorTexture":{
					"index":0
				},
				"metallicFactor":0,
				"roughnessFactor":0.5
			}
		},
		{
			"doubleSided":true,
			"name":"Material.002",
			"pbrMetallicRoughness":{
				"baseColorFactor":[
					0.4025896191596985,
					0.4025896191596985,
					0.4025896191596985,
					1
				],
				"metallicFactor":0.774545431137085,
				"roughnessFactor":0.5
			}
		}
	],
	"meshes":[
		{
			"name":"Cube.001",
			"primitives":[
				{
					"attributes":{
						"POSITION":0,
						"NORMAL":1,
						"TEXCOORD_0":2
					},
					"indices":3,
					"material":0
				}
			]
		},
		{
			"name":"Cube.005",
			"primitives":[
				{
					"attributes":{
						"POSITION":4,
						"NORMAL":5,
						"TEXCOORD_0":6
					},
					"indices":7,
					"material":0
				}
			]
		},
		{
			"name":"Cube.006",
			"primitives":[
				{
					"attributes":{
						"POSITION":8,
						"NORMAL":9,
						"TEXCOORD_0":10
					},
					"indices":11,
					"material":1
				}
			]
		},
		{
			"name":"Cube.008",
			"primitives":[
				{
					"attributes":{
						"POSITION":12,
						"NORMAL":13,
						"TEXCOORD_0":14
					},
					"indices":15,
					"material":0
				}
			]
		},
		{
			"name":"Cube.010",
			"primitives":[
				{
					"attributes":{
						"POSITION":16,
						"NORMAL":17,
						"TEXCOORD_0":18
					},
					"indices":19,
					"material":0
				}
			]
		},
		{
			"name":"Cube.011",
			"primitives":[
				{
					"attributes":{
						"POSITION":20,
						"NORMAL":21,
						"TEXCOORD_0":22
					},
					"indices":23,
					"material":0
				}
			]
		},
		{
			"name":"Cube.012",
			"primitives":[
				{
					"attributes":{
						"POSITION":24,
						"NORMAL":25,
						"TEXCOORD_0":26
					},
					"indices":27,
					"material":0
				}
			]
		},
		{
			"name":"Cube.013",
			"primitives":[
				{
					"attributes":{
						"POSITION":28,
						"NORMAL":29,
						"TEXCOORD_0":30
					},
					"indices":31,
					"material":0
				}
			]
		},
		{
			"name":"Cube.014",
			"primitives":[
				{
					"attributes":{
						"POSITION":32,
						"NORMAL":33,
						"TEXCOORD_0":34
					},
					"indices":35,
					"material":0
				}
			]
		},
		{
			"name":"Cube.015",
			"primitives":[
				{
					"attributes":{
						"POSITION":36,
						"NORMAL":37,
						"TEXCOORD_0":38
					},
					"indices":39,
					"material":0
				}
			]
		},
		{
			"name":"Cube.016",
			"primitives":[
				{
					"attributes":{
						"POSITION":40,
						"NORMAL":41,
						"TEXCOORD_0":42
					},
					"indices":39,
					"material":0
				}
			]
		},
		{
			"name":"Cube",
			"primitives":[
				{
					"attributes":{
						"POSITION":43,
						"NORMAL":44,
						"TEXCOORD_0":45
					},
					"indices":46,
					"material":0
				}
			]
		}
	],
	"textures":[
		{
			"sampler":0,
			"source":0
		}
	],
	"images":[
		{
			"mimeType":"image/jpeg",
			"name":"FabricUpholsteryMossPlainWeave001_COL_VAR1_1K",
			"uri":"FabricUpholsteryMossPlainWeave001_COL_VAR1_1K.jpg"
		}
	],
	"accessors":[
		{
			"bufferView":0,
			"componentType":5126,
			"count":600,
			"max":[
				1.127097725868225,
				0.02958558313548565,
				0.44793999195098877
			],
			"min":[
				-1.127097725868225,
				-0.02958558313548565,
				-0.44793999195098877
			],
			"type":"VEC3"
		},
		{
			"bufferView":1,
			"componentType":5126,
			"count":600,
			"type":"VEC3"
		},
		{
			"bufferView":2,
			"componentType":5126,
			"count":600,
			"type":"VEC2"
		},
		{
			"bufferView":3,
			"componentType":5123,
			"count":900,
			"type":"SCALAR"
		},
		{
			"bufferView":4,
			"componentType":5126,
			"count":1286,
			"max":[
				1.127097725868225,
				0.02958558313548565,
				0.44793999195098877
			],
			"min":[
				-1.127097725868225,
				-0.02958558313548565,
				-0.39694008231163025
			],
			"type":"VEC3"
		},
		{
			"bufferView":5,
			"componentType":5126,
			"count":1286,
			"type":"VEC3"
		},
		{
			"bufferView":6,
			"componentType":5126,
			"count":1286,
			"type":"VEC2"
		},
		{
			"bufferView":7,
			"componentType":5123,
			"count":2064,
			"type":"SCALAR"
		},
		{
			"bufferView":8,
			"componentType":5126,
			"count":280,
			"max":[
				5.400086402893066,
				1,
				112.71465301513672
			],
			"min":[
				-150.4864959716797,
				-9.652857780456543,
				-43.17192840576172
			],
			"type":"VEC3"
		},
		{
			"bufferView":9,
			"componentType":5126,
			"count":280,
			"type":"VEC3"
		},
		{
			"bufferView":10,
			"componentType":5126,
			"count":280,
			"type":"VEC2"
		},
		{
			"bufferView":11,
			"componentType":5123,
			"count":624,
			"type":"SCALAR"
		},
		{
			"bufferView":12,
			"componentType":5126,
			"count":31991,
			"max":[
				0.3495960831642151,
				0.25061488151550293,
				0.09779078513383865
			],
			"min":[
				-0.34770578145980835,
				-0.25057175755500793,
				-0.09250470995903015
			],
			"type":"VEC3"
		},
		{
			"bufferView":13,
			"componentType":5126,
			"count":31991,
			"type":"VEC3"
		},
		{
			"bufferView":14,
			"componentType":5126,
			"count":31991,
			"type":"VEC2"
		},
		{
			"bufferView":15,
			"componentType":5123,
			"count":48768,
			"type":"SCALAR"
		},
		{
			"bufferView":16,
			"componentType":5126,
			"count":31945,
			"max":[
				0.34796464443206787,
				0.2506152391433716,
				0.09695868194103241
			],
			"min":[
				-0.3477054238319397,
				-0.25051653385162354,
				-0.08768005669116974
			],
			"type":"VEC3"
		},
		{
			"bufferView":17,
			"componentType":5126,
			"count":31945,
			"type":"VEC3"
		},
		{
			"bufferView":18,
			"componentType":5126,
			"count":31945,
			"type":"VEC2"
		},
		{
			"bufferView":19,
			"componentType":5123,
			"count":48768,
			"type":"SCALAR"
		},
		{
			"bufferView":20,
			"componentType":5126,
			"count":30836,
			"max":[
				0.3479762673377991,
				0.2504325211048126,
				0.08772407472133636
			],
			"min":[
				-0.3476788401603699,
				-0.25051653385162354,
				-0.08768005669116974
			],
			"type":"VEC3"
		},
		{
			"bufferView":21,
			"componentType":5126,
			"count":30836,
			"type":"VEC3"
		},
		{
			"bufferView":22,
			"componentType":5126,
			"count":30836,
			"type":"VEC2"
		},
		{
			"bufferView":23,
			"componentType":5123,
			"count":48768,
			"type":"SCALAR"
		},
		{
			"bufferView":24,
			"componentType":5126,
			"count":69005,
			"max":[
				0.36184319853782654,
				0.06915991753339767,
				0.36121895909309387
			],
			"min":[
				-0.36079710721969604,
				-0.06402669101953506,
				-0.3615484833717346
			],
			"type":"VEC3"
		},
		{
			"bufferView":25,
			"componentType":5126,
			"count":69005,
			"type":"VEC3"
		},
		{
			"bufferView":26,
			"componentType":5126,
			"count":69005,
			"type":"VEC2"
		},
		{
			"bufferView":27,
			"componentType":5125,
			"count":109824,
			"type":"SCALAR"
		},
		{
			"bufferView":28,
			"componentType":5126,
			"count":59580,
			"max":[
				0.360850989818573,
				0.060455322265625,
				0.36081308126449585
			],
			"min":[
				-0.36082667112350464,
				-0.06046783924102783,
				-0.36081063747406006
			],
			"type":"VEC3"
		},
		{
			"bufferView":29,
			"componentType":5126,
			"count":59580,
			"type":"VEC3"
		},
		{
			"bufferView":30,
			"componentType":5126,
			"count":59580,
			"type":"VEC2"
		},
		{
			"bufferView":31,
			"componentType":5123,
			"count":109824,
			"type":"SCALAR"
		},
		{
			"bufferView":32,
			"componentType":5126,
			"count":60689,
			"max":[
				0.3608323335647583,
				0.06059146299958229,
				0.36081308126449585
			],
			"min":[
				-0.36082667112350464,
				-0.06050160154700279,
				-0.36341795325279236
			],
			"type":"VEC3"
		},
		{
			"bufferView":33,
			"componentType":5126,
			"count":60689,
			"type":"VEC3"
		},
		{
			"bufferView":34,
			"componentType":5126,
			"count":60689,
			"type":"VEC2"
		},
		{
			"bufferView":35,
			"componentType":5123,
			"count":109824,
			"type":"SCALAR"
		},
		{
			"bufferView":36,
			"componentType":5126,
			"count":20803,
			"max":[
				0.06878405809402466,
				0.15361368656158447,
				0.259996235370636
			],
			"min":[
				-0.06878221035003662,
				-0.15362608432769775,
				-0.25998780131340027
			],
			"type":"VEC3"
		},
		{
			"bufferView":37,
			"componentType":5126,
			"count":20803,
			"type":"VEC3"
		},
		{
			"bufferView":38,
			"componentType":5126,
			"count":20803,
			"type":"VEC2"
		},
		{
			"bufferView":39,
			"componentType":5123,
			"count":31488,
			"type":"SCALAR"
		},
		{
			"bufferView":40,
			"componentType":5126,
			"count":20803,
			"max":[
				0.06878405809402466,
				0.15361368656158447,
				0.259996235370636
			],
			"min":[
				-0.06878221035003662,
				-0.15362608432769775,
				-0.25998780131340027
			],
			"type":"VEC3"
		},
		{
			"bufferView":41,
			"componentType":5126,
			"count":20803,
			"type":"VEC3"
		},
		{
			"bufferView":42,
			"componentType":5126,
			"count":20803,
			"type":"VEC2"
		},
		{
			"bufferView":43,
			"componentType":5126,
			"count":3322,
			"max":[
				0.019155990332365036,
				0.05799699202179909,
				0.3589995801448822
			],
			"min":[
				-2.227322578430176,
				-0.35723602771759033,
				-0.36497899889945984
			],
			"type":"VEC3"
		},
		{
			"bufferView":44,
			"componentType":5126,
			"count":3322,
			"type":"VEC3"
		},
		{
			"bufferView":45,
			"componentType":5126,
			"count":3322,
			"type":"VEC2"
		},
		{
			"bufferView":46,
			"componentType":5123,
			"count":5172,
			"type":"SCALAR"
		}
	],
	"bufferViews":[
		{
			"buffer":0,
			"byteLength":7200,
			"byteOffset":0,
			"target":34962
		},
		{
			"buffer":0,
			"byteLength":7200,
			"byteOffset":7200,
			"target":34962
		},
		{
			"buffer":0,
			"byteLength":4800,
			"byteOffset":14400,
			"target":34962
		},
		{
			"buffer":0,
			"byteLength":1800,
			"byteOffset":19200,
			"target":34963
		},
		{
			"buffer":0,
			"byteLength":15432,
			"byteOffset":21000,
			"target":34962
		},
		{
			"buffer":0,
			"byteLength":15432,
			"byteOffset":36432,
			"target":34962
		},
		{
			"buffer":0,
			"byteLength":10288,
			"byteOffset":51864,
			"target":34962
		},
		{
			"buffer":0,
			"byteLength":4128,
			"byteOffset":62152,
			"target":34963
		},
		{
			"buffer":0,
			"byteLength":3360,
			"byteOffset":66280,
			"target":34962
		},
		{
			"buffer":0,
			"byteLength":3360,
			"byteOffset":69640,
			"target":34962
		},
		{
			"buffer":0,
			"byteLength":2240,
			"byteOffset":73000,
			"target":34962
		},
		{
			"buffer":0,
			"byteLength":1248,
			"byteOffset":75240,
			"target":34963
		},
		{
			"buffer":0,
			"byteLength":383892,
			"byteOffset":76488,
			"target":34962
		},
		{
			"buffer":0,
			"byteLength":383892,
			"byteOffset":460380,
			"target":34962
		},
		{
			"buffer":0,
			"byteLength":255928,
			"byteOffset":844272,
			"target":34962
		},
		{
			"buffer":0,
			"byteLength":97536,
			"byteOffset":1100200,
			"target":34963
		},
		{
			"buffer":0,
			"byteLength":383340,
			"byteOffset":1197736,
			"target":34962
		},
		{
			"buffer":0,
			"byteLength":383340,
			"byteOffset":1581076,
			"target":34962
		},
		{
			"buffer":0,
			"byteLength":255560,
			"byteOffset":1964416,
			"target":34962
		},
		{
			"buffer":0,
			"byteLength":97536,
			"byteOffset":2219976,
			"target":34963
		},
		{
			"buffer":0,
			"byteLength":370032,
			"byteOffset":2317512,
			"target":34962
		},
		{
			"buffer":0,
			"byteLength":370032,
			"byteOffset":2687544,
			"target":34962
		},
		{
			"buffer":0,
			"byteLength":246688,
			"byteOffset":3057576,
			"target":34962
		},
		{
			"buffer":0,
			"byteLength":97536,
			"byteOffset":3304264,
			"target":34963
		},
		{
			"buffer":0,
			"byteLength":828060,
			"byteOffset":3401800,
			"target":34962
		},
		{
			"buffer":0,
			"byteLength":828060,
			"byteOffset":4229860,
			"target":34962
		},
		{
			"buffer":0,
			"byteLength":552040,
			"byteOffset":5057920,
			"target":34962
		},
		{
			"buffer":0,
			"byteLength":439296,
			"byteOffset":5609960,
			"target":34963
		},
		{
			"buffer":0,
			"byteLength":714960,
			"byteOffset":6049256,
			"target":34962
		},
		{
			"buffer":0,
			"byteLength":714960,
			"byteOffset":6764216,
			"target":34962
		},
		{
			"buffer":0,
			"byteLength":476640,
			"byteOffset":7479176,
			"target":34962
		},
		{
			"buffer":0,
			"byteLength":219648,
			"byteOffset":7955816,
			"target":34963
		},
		{
			"buffer":0,
			"byteLength":728268,
			"byteOffset":8175464,
			"target":34962
		},
		{
			"buffer":0,
			"byteLength":728268,
			"byteOffset":8903732,
			"target":34962
		},
		{
			"buffer":0,
			"byteLength":485512,
			"byteOffset":9632000,
			"target":34962
		},
		{
			"buffer":0,
			"byteLength":219648,
			"byteOffset":10117512,
			"target":34963
		},
		{
			"buffer":0,
			"byteLength":249636,
			"byteOffset":10337160,
			"target":34962
		},
		{
			"buffer":0,
			"byteLength":249636,
			"byteOffset":10586796,
			"target":34962
		},
		{
			"buffer":0,
			"byteLength":166424,
			"byteOffset":10836432,
			"target":34962
		},
		{
			"buffer":0,
			"byteLength":62976,
			"byteOffset":11002856,
			"target":34963
		},
		{
			"buffer":0,
			"byteLength":249636,
			"byteOffset":11065832,
			"target":34962
		},
		{
			"buffer":0,
			"byteLength":249636,
			"byteOffset":11315468,
			"target":34962
		},
		{
			"buffer":0,
			"byteLength":166424,
			"byteOffset":11565104,
			"target":34962
		},
		{
			"buffer":0,
			"byteLength":39864,
			"byteOffset":11731528,
			"target":34962
		},
		{
			"buffer":0,
			"byteLength":39864,
			"byteOffset":11771392,
			"target":34962
		},
		{
			"buffer":0,
			"byteLength":26576,
			"byteOffset":11811256,
			"target":34962
		},
		{
			"buffer":0,
			"byteLength":10344,
			"byteOffset":11837832,
			"target":34963
		}
	],
	"samplers":[
		{
			"magFilter":9729,
			"minFilter":9987
		}
	],
	"buffers":[
		{
			"byteLength":11848176,
			"uri":"Couch.bin"
		}
	]
}
